# xmcd
#
# Track frame offsets:
#	150
#	15020
#	28655
#	40752
#	55952
#	76727
#	88745
#	101832
#	116745
#	127262
#	142690
#
# Disc length: 2065 seconds
#
# Revision: 1
# Processed by: cddbd v1.5.2PL0 Copyright (c) Steve Scherf et al.
# Submitted via: audiograbber 1.83.01
#
DISCID=84080f0b
DTITLE=Harry Robbins - Long Way Back Home
DYEAR=1900
DGENRE=Country
TTITLE0=Long Way Back Home
TTITLE1=Come Tomorrow
TTITLE2=Southern Bound
TTITLE3=Jamestown Ferry
TTITLE4=To Beat The Devil
TTITLE5=Black Jack Country
TTITLE6=The Pilgrim
TTITLE7=Soft And Gentle
TTITLE8=Beaver Creek
TTITLE9=Ain't Life Easy
TTITLE10=Step Inside My House
EXTD=
EXTT0=
EXTT1=
EXTT2=
EXTT3=
EXTT4=
EXTT5=
EXTT6=
EXTT7=
EXTT8=
EXTT9=
EXTT10=
PLAYORDER=
